<?xml version="1.0" ?><!DOCTYPE svg  PUBLIC '-//W3C//DTD SVG 1.1//EN'  'http://www.w3.org/Graphics/SVG/1.1/DTD/svg11.dtd'><svg enable-background="new 0 0 91 91" height="91px" id="Layer_1" version="1.1" viewBox="0 0 91 91" width="91px" xml:space="preserve" xmlns="http://www.w3.org/2000/svg" xmlns:xlink="http://www.w3.org/1999/xlink"><g><g><g><path d="M14.403,31.614c0.254,0.079,0.458,0.271,0.556,0.519c0.095,0.249,0.071,0.529-0.064,0.757     c-1.45,2.44,0.471,8.455,3.604,11.29c1.778,1.608,5.268,2.575,4.821,2.754c5.879,1.237,12.834,2.199,20.584,2.304     c0.018,0,0.032,0.01,0.05,0.01c0.054,0.002,0.109,0.021,0.164,0.034c0.059,0.019,0.115,0.03,0.166,0.057     c0.014,0.008,0.03,0.006,0.042,0.017c0.455,0.259,10.605,5.966,18.526-1.199c-4.385-0.892-7.693-4.777-7.693-9.42     c0-5.302,4.31-9.616,9.61-9.616c2.014,0,3.879,0.624,5.427,1.685c2.037-3.559,2.632-12.438,0.335-16.499     c-0.795-1.407-1.812-2.007-3.099-1.807c-0.254,0.03-0.513-0.043-0.707-0.216c-0.191-0.173-0.296-0.422-0.286-0.683     c0.157-3.714-0.938-6.513-3.009-7.681c-1.503-0.844-3.399-0.731-4.951,0.299c-2.06,1.369-3.077,4.013-2.724,7.073     c0.04,0.339-0.124,0.67-0.416,0.846c-0.295,0.176-0.665,0.162-0.943-0.032c-2.511-1.749-5.491-1.824-7.79-0.202     c-2.371,1.68-4.332,5.544-2.72,11.342c0.004,0.022,0,0.042,0.004,0.065c0.648,2.616,0.648,5.655,0.638,7.981l-0.002,1.05     c0.002,0.277-0.136,0.513-0.335,0.673c0.216-0.021,0.422-0.064,0.644-0.064c4.051,0,7.349,3.295,7.349,7.349     c0,4.051-3.298,7.347-7.349,7.347s-7.347-3.296-7.347-7.347c0-3.52,2.488-6.463,5.796-7.178c-0.289-0.139-0.493-0.43-0.495-0.773     l0.002-1.064c0.01-2.222,0.02-5.152-0.56-7.538c-0.006-0.014-0.016-0.022-0.018-0.036c-0.01-0.037-0.016-0.069-0.026-0.101     c-0.348-1.361-0.889-2.541-1.753-3.28c-0.896-0.769-2.086-1.029-3.633-0.777c-0.291,0.04-0.602-0.067-0.799-0.299     c-0.196-0.232-0.257-0.551-0.158-0.838c1.313-3.861-1.214-8.036-4.306-9.692c-1.368-0.729-4.861-2.016-7.824,1.84     c-0.166,0.216-0.352,0.333-0.697,0.339c-0.273-0.004-0.527-0.131-0.691-0.353c-3.75-5.078-7.329-5.617-9.256-4.545     c-2.165,1.208-3.341,4.954-1.081,10.6c0.106,0.264,0.077,0.567-0.083,0.804c-0.16,0.24-0.426,0.384-0.713,0.388     c-2.842,0.034-4.415,0.979-4.678,2.805C6.01,24.145,10.503,30.424,14.403,31.614z" fill="#ACD263"/><path d="M64.77,30.856c-4.341,0-7.873,3.534-7.873,7.879c0,4.342,3.532,7.874,7.873,7.874     c4.344,0,7.876-3.532,7.876-7.874C72.646,34.391,69.113,30.856,64.77,30.856z" fill="#F16A6D"/><path d="M65.151,48.328c-1.628,1.758-3.394,2.987-5.205,3.808c4.54,1.565,9.573,1.426,12.297-0.488     c1.711-1.202,2.471-3.014,2.261-5.387c-0.022-0.269,0.081-0.533,0.28-0.717c0.198-0.184,0.472-0.26,0.739-0.214     c2.874,0.525,5.506-0.842,7.081-3.633c1.535-2.715,1.521-5.85-0.034-7.623c-1.73-1.971-5.158-2.123-9.696-0.491     c0.949,1.491,1.51,3.256,1.51,5.152C74.384,43.905,70.274,48.127,65.151,48.328z" fill="#FAE58F"/><path d="M17.334,45.467c-2.26-2.044-4.112-5.769-4.54-9.048c-4.593-0.382-7.178,3.09-8.103,4.676     c1.73,0.782,6.216,2.662,12.703,4.421C17.375,45.497,17.354,45.485,17.334,45.467z" fill="#ADADAD"/><path d="M44.835,45.907c3.095,0,5.612-2.516,5.612-5.608c0-3.096-2.517-5.612-5.612-5.612     c-3.094,0-5.61,2.517-5.61,5.612C39.225,43.391,41.742,45.907,44.835,45.907z" fill="#BAA1B6"/><path d="M86.494,42.653l-3.171,1.155c-0.021,0.006-0.04,0.002-0.061,0.01c-1.753,2.256-4.243,3.474-6.989,3.342     c-0.038,2.506-1.075,4.536-3.029,5.907c-1.888,1.325-4.384,1.885-6.993,1.885c-3.041,0-6.231-0.76-8.797-1.945     c-1.365,0.348-2.737,0.518-4.07,0.518c-3.829,0-7.358-1.234-9.719-2.56c-20.358-0.313-35.496-6.418-39.503-8.208     c-0.533,3.56-1.569,15.269,5.833,24.538c6.757,8.457,18.643,12.763,35.329,12.796c0.48,0.002,0.868,0.392,0.868,0.871     c-0.002,0.479-0.392,0.868-0.87,0.868l0,0c-10.381-0.022-18.975-1.685-25.728-4.935l1.412,6.479     c6.354,2.804,14.392,4.235,23.9,4.256c0.065,0,0.129,0,0.196,0c9.913,0,18.205-1.484,24.668-4.411l0.693-5.805     c-2.71,1.192-5.673,2.169-8.95,2.879c-0.063,0.012-0.125,0.02-0.186,0.02c-0.4,0-0.76-0.279-0.847-0.687     c-0.103-0.469,0.195-0.932,0.664-1.03c10.131-2.185,17.418-6.756,21.661-13.584C88.345,56.1,87.062,45.786,86.494,42.653z" fill="#F3DBD2"/></g><g><path d="M45.191,90.919c-0.067,0-0.134,0-0.202,0c-10.169-0.022-18.789-1.61-25.621-4.722     c-0.673-0.308-1.162-0.913-1.319-1.637l-1.737-7.972c-0.276-1.264,0.525-2.515,1.792-2.79c1.265-0.281,2.514,0.526,2.792,1.793     l1.482,6.8c6.055,2.527,13.659,3.817,22.622,3.836c9.399-0.011,17.293-1.307,23.495-3.946l0.774-6.469     c0.154-1.286,1.317-2.204,2.608-2.05c1.286,0.152,2.203,1.32,2.049,2.606l-0.933,7.79c-0.097,0.802-0.6,1.499-1.333,1.844     C64.707,89.265,55.802,90.919,45.191,90.919z" fill="#434B56"/><g><path d="M18.418,46.537c-1.444,0-2.831-0.543-4.029-1.628c-2.736-2.472-3.956-7.388-3.094-11.191      c-4.349-2.654-8.545-8.775-7.869-13.499c0.192-1.339,1.041-4.12,4.75-5.16C6.681,9.095,8.646,4.916,11.596,3.27      c2.712-1.513,7.22-1.375,11.68,3.363c2.86-2.208,6.451-2.5,9.868-0.67c3.541,1.895,6.433,6.039,6.364,10.5      c1.169,0.228,2.207,0.729,3.108,1.5c3.522,3.022,3.496,9.272,3.479,13.409l-0.002,1.038c0.004,1.296-1.042,2.349-2.336,2.355      c-0.002,0-0.006,0-0.008,0c-1.292,0-2.341-1.044-2.345-2.337v-1.075c0.014-3.074,0.034-8.219-1.842-9.83      c-0.349-0.298-0.989-0.672-2.438-0.44c-0.816,0.129-1.632-0.176-2.163-0.804c-0.53-0.63-0.691-1.488-0.426-2.268      c1.062-3.126-1.044-6.544-3.605-7.914c-1.568-0.84-3.874-1.272-5.956,1.437c-0.448,0.583-1.172,0.909-1.88,0.917      c-0.737-0.006-1.428-0.359-1.864-0.951c-2.959-4.005-5.881-4.952-7.35-4.132c-1.6,0.891-2.26,4.187-0.428,8.759      c0.287,0.719,0.202,1.533-0.229,2.175c-0.428,0.643-1.147,1.032-1.92,1.042c-3.02,0.036-3.181,1.167-3.234,1.539      c-0.412,2.876,3.623,8.408,6.855,9.396c0.688,0.21,1.242,0.725,1.5,1.396c0.26,0.672,0.198,1.425-0.172,2.045      c-1.135,1.911-0.43,6.164,1.281,7.711c0.348,0.313,0.931,0.84,2.347-0.206c1.04-0.771,2.511-0.552,3.28,0.491      c0.77,1.042,0.549,2.51-0.491,3.28C21.279,46.024,19.822,46.537,18.418,46.537z" fill="#434B56"/><path d="M35.505,46.545c-0.731,0-1.45-0.339-1.909-0.979c-4.328-6.036-10.258-14.305-14.228-20.751      c-0.679-1.103-0.335-2.549,0.767-3.228c1.103-0.678,2.547-0.335,3.228,0.768c3.884,6.307,9.757,14.499,14.044,20.479      c0.755,1.052,0.515,2.519-0.539,3.272C36.456,46.401,35.978,46.545,35.505,46.545z" fill="#434B56"/><path d="M33.736,39.476c-1.295,0-2.345-1.05-2.345-2.345V27.118c0-1.297,1.05-2.347,2.345-2.347      c1.296,0,2.345,1.05,2.345,2.347v10.013C36.081,38.426,35.032,39.476,33.736,39.476z" fill="#434B56"/><path d="M26.669,31.23c-0.066,0-0.133-0.002-0.2-0.008c-1.291-0.109-2.249-1.242-2.139-2.535      c0.113-1.354,0.376-2.605,0.63-3.817c0.234-1.123,0.456-2.184,0.547-3.25c0.107-1.291,1.244-2.244,2.533-2.144      c1.291,0.109,2.248,1.244,2.141,2.535c-0.113,1.355-0.375,2.608-0.63,3.821c-0.236,1.121-0.458,2.182-0.547,3.248      C28.9,30.305,27.875,31.23,26.669,31.23z" fill="#434B56"/><path d="M20.188,38.887c-0.828,0-1.629-0.438-2.058-1.216c-0.622-1.137-0.208-2.563,0.929-3.185      c2.383-1.309,5.776-2.058,9.321-2.058c0.021,0,0.041,0,0.061,0c1.294,0.004,2.343,1.056,2.339,2.351      c-0.002,1.295-1.052,2.341-2.345,2.341c-0.016-0.002-0.034,0-0.052,0c-2.699,0-5.403,0.566-7.067,1.479      C20.958,38.793,20.569,38.887,20.188,38.887z" fill="#434B56"/><path d="M70.49,34.47c-0.522,0-1.048-0.176-1.483-0.531c-1.003-0.822-1.149-2.3-0.328-3.302      c1.894-2.311,2.925-11.52,0.657-15.529c-0.683-1.208-1.256-1.127-1.598-1.075c-0.689,0.103-1.392-0.111-1.911-0.58      c-0.519-0.468-0.802-1.143-0.771-1.84c0.131-3.141-0.693-5.449-2.261-6.332c-1.016-0.574-2.324-0.48-3.409,0.24      c-1.612,1.07-2.366,3.139-2.074,5.673c0.105,0.917-0.335,1.81-1.127,2.284s-1.787,0.438-2.545-0.091      c-1.872-1.305-3.716-1.511-5.057-0.566c-1.797,1.267-3.241,5.146-1.396,11.91c0.339,1.25-0.396,2.539-1.646,2.88      c-1.248,0.341-2.539-0.398-2.88-1.646c-2.106-7.725-0.903-14.071,3.219-16.977c2.021-1.426,4.453-1.799,6.898-1.139      c0.514-2.625,1.902-4.835,4.011-6.234c2.563-1.703,5.747-1.864,8.308-0.422c2.666,1.503,4.288,4.494,4.602,8.377      c1.499,0.462,2.773,1.557,3.719,3.228c3.144,5.556,2.036,16.969-1.112,20.811C71.843,34.177,71.17,34.47,70.49,34.47z" fill="#434B56"/><path d="M51.407,41.831c-0.002,0-0.007,0-0.009,0c-1.295-0.004-2.34-1.056-2.336-2.353      c0.024-7.835,2.397-13.341,5.144-19.717c0.495-1.147,1.004-2.325,1.514-3.555c0.494-1.198,1.863-1.767,3.063-1.271      c1.197,0.497,1.765,1.868,1.271,3.066c-0.52,1.25-1.037,2.45-1.54,3.615c-2.647,6.146-4.739,11.001-4.762,17.878      C53.748,40.788,52.698,41.831,51.407,41.831z" fill="#434B56"/><path d="M54.348,28.874c-0.459,0-0.921-0.134-1.327-0.412c-1.065-0.735-1.337-2.196-0.604-3.262      c1.379-2.005,4.243-6.182,9.216-5.72c1.291,0.12,2.24,1.26,2.123,2.551c-0.12,1.289-1.269,2.244-2.551,2.121      c-1.639-0.147-2.961,0.856-4.923,3.707C55.828,28.52,55.095,28.874,54.348,28.874z" fill="#434B56"/><path d="M64.86,49.9c-6.113,0-11.088-4.977-11.088-11.091c0-6.117,4.975-11.092,11.088-11.092      c6.114,0,11.09,4.975,11.09,11.092C75.95,44.923,70.975,49.9,64.86,49.9z M64.86,32.408c-3.528,0-6.398,2.872-6.398,6.402      c0,3.529,2.87,6.398,6.398,6.398c3.527,0,6.399-2.87,6.399-6.398C71.26,35.28,68.388,32.408,64.86,32.408z" fill="#434B56"/><path d="M44.925,49.197c-4.865,0-8.822-3.959-8.822-8.824c0-4.868,3.957-8.826,8.822-8.826      c4.867,0,8.827,3.958,8.827,8.826C53.752,45.238,49.792,49.197,44.925,49.197z M44.925,36.237c-2.278,0-4.132,1.856-4.132,4.137      c0,2.278,1.854,4.132,4.132,4.132c2.282,0,4.138-1.854,4.138-4.132C49.063,38.093,47.207,36.237,44.925,36.237z" fill="#434B56"/><path d="M66.659,39.388c-1.297,0-2.351-1.05-2.351-2.345c0-1.297,1.044-2.347,2.339-2.347h0.012      c1.295,0,2.346,1.05,2.346,2.347C69.005,38.337,67.954,39.388,66.659,39.388z" fill="#434B56"/><path d="M53.501,55.432c-3.346,0-6.969-1.068-10.691-3.222c-1.123-0.647-1.506-2.082-0.858-3.204      c0.65-1.122,2.084-1.503,3.205-0.856c4.441,2.568,10.742,4.545,15.533-0.629c0.88-0.949,2.363-1.008,3.314-0.127      c0.948,0.881,1.007,2.362,0.127,3.314C61.223,53.849,57.569,55.432,53.501,55.432z" fill="#434B56"/><path d="M66.357,56.518c-3.339,0-6.771-0.855-9.459-2.106c-1.175-0.545-1.687-1.938-1.139-3.113      c0.545-1.176,1.94-1.683,3.114-1.14c4.427,2.054,9.966,2.211,12.613,0.355c1.264-0.889,1.799-2.211,1.638-4.047      c-0.065-0.729,0.214-1.447,0.753-1.939s1.274-0.708,1.999-0.576c3.187,0.576,5.048-1.647,5.869-3.025      c1.418-2.375,1.626-5.368,0.475-6.814c-1.229-1.541-3.999-0.937-5.542-0.438c-1.239,0.402-2.557-0.276-2.954-1.509      c-0.398-1.232,0.278-2.555,1.51-2.953c6.281-2.034,9.371,0.366,10.653,1.977c2.402,3.014,2.354,8.006-0.114,12.143      c-1.91,3.197-4.813,5.091-8.061,5.368c-0.38,2.33-1.587,4.288-3.53,5.65C71.989,55.893,69.206,56.518,66.357,56.518z" fill="#434B56"/></g><path d="M61.416,81.865c-1.08,0-2.052-0.752-2.289-1.853c-0.273-1.267,0.532-2.513,1.797-2.785     c9.732-2.099,16.704-6.45,20.728-12.935c4.504-7.26,4.254-15.479,3.748-19.562l-10.262,3.732     c-1.216,0.442-2.563-0.186-3.005-1.403c-0.442-1.216,0.187-2.563,1.401-3.005l12.898-4.69c0.621-0.228,1.313-0.18,1.897,0.131     c0.586,0.309,1.015,0.854,1.176,1.497c0.143,0.565,3.43,14.011-3.869,25.772c-4.719,7.608-12.7,12.67-23.724,15.047     C61.748,81.849,61.58,81.865,61.416,81.865z" fill="#434B56"/><path d="M45.414,83.381c-0.002,0-0.004,0-0.006,0c-17.718-0.036-30.452-4.754-37.844-14.022     c-9.749-12.222-6.406-27.656-6.259-28.307c0.159-0.713,0.645-1.311,1.311-1.616c0.667-0.305,1.434-0.281,2.081,0.063     c0.143,0.077,14.945,7.789,37.965,8.092c1.294,0.019,2.331,1.083,2.314,2.378c-0.018,1.284-1.064,2.314-2.345,2.314     c-0.01,0-0.02,0-0.032-0.003c-18.32-0.241-31.5-4.862-37.118-7.25c-0.396,4.646-0.242,13.922,5.778,21.441     c6.465,8.074,17.959,12.186,34.159,12.218c1.294,0.004,2.342,1.057,2.34,2.352C47.756,82.334,46.705,83.381,45.414,83.381z" fill="#434B56"/><path d="M3.59,43.914c-0.317,0-0.641-0.064-0.947-0.2c-1.186-0.523-1.721-1.909-1.198-3.094     c1.285-2.904,5.494-8.166,12.248-7.287c1.284,0.165,2.189,1.343,2.023,2.627c-0.167,1.284-1.355,2.193-2.627,2.023     c-5-0.654-7.329,4.481-7.354,4.532C5.35,43.393,4.489,43.914,3.59,43.914z" fill="#434B56"/></g></g></g></svg>