<?xml version="1.0" ?><svg id="filled" viewBox="0 0 64 64" xmlns="http://www.w3.org/2000/svg"><defs><style>.cls-1{fill:#fee6c5;}.cls-1,.cls-2,.cls-3,.cls-5{stroke:#373737;stroke-linecap:round;stroke-linejoin:round;stroke-width:2px;}.cls-2{fill:#c37f37;}.cls-3{fill:#ff4d38;}.cls-4{fill:#d4402f;}.cls-5{fill:#96c71f;}.cls-6{fill:#fcbb60;}</style></defs><title/><path class="cls-1" d="M18,31V17c0-5.5228,6.2681-10,14-10h0c7.7319,0,14,4.4772,14,10V31"/><polygon class="cls-2" points="26.282 18 22.531 4 14.804 6.071 18 18 19.98 25.389 27.707 23.318 26.282 18"/><polygon class="cls-2" points="31 18.494 31 4 39 4 39 16.35 39 24 31 24 31 18.494"/><circle class="cls-3" cx="31.0004" cy="18" r="7"/><circle class="cls-4" cx="31.0004" cy="18" r="4"/><path class="cls-5" d="M46,12a2.988,2.988,0,0,0-2.6459,1.6143A4.9442,4.9442,0,0,0,41,13a5,5,0,1,0,5,5,3,3,0,0,0,0-6Z"/><path class="cls-1" d="M18,18h0A28,28,0,0,1,46,46V60a0,0,0,0,1,0,0H18a0,0,0,0,1,0,0V18A0,0,0,0,1,18,18Z"/><path class="cls-1" d="M18,18H46a0,0,0,0,1,0,0V32A28,28,0,0,1,18,60h0a0,0,0,0,1,0,0V18A0,0,0,0,1,18,18Z" transform="translate(64.0008 78) rotate(-180)"/><circle class="cls-6" cx="23" cy="24" r="1"/><circle class="cls-6" cx="40" cy="30" r="1"/><circle class="cls-6" cx="39" cy="50" r="2"/><circle class="cls-6" cx="35" cy="38" r="2"/><circle class="cls-6" cx="27.0004" cy="39" r="1"/><circle class="cls-6" cx="27.0004" cy="52" r="1"/></svg>